<svg width="138" height="33" viewBox="0 0 138 33" fill="none" xmlns="http://www.w3.org/2000/svg">
    <path d="M131.33 28.0863V26.6364H133.579V23.8964H131.33V22.4465H137.301V23.8964H134.727V26.6364H137.301V28.0863H131.33Z" fill="#AED24D"/>
    <path d="M131.33 19.5141H134.698C135.96 19.5141 136.285 18.8576 136.285 18.1156C136.285 17.3221 135.954 16.8027 134.698 16.8027H131.33V15.3528H134.755C136.565 15.3528 137.438 16.3688 137.438 18.1498C137.438 19.8737 136.645 20.9697 134.807 20.9697H131.353L131.33 19.5141Z" fill="#AED24D"/>
    <path d="M131.33 13.8663V10.5498C131.33 9.12276 132.015 8.49486 132.866 8.49486C133.551 8.49486 133.962 8.93439 134.127 9.39676C134.321 8.82023 134.755 8.30078 135.497 8.30078C136.622 8.30078 137.278 9.1513 137.278 10.6297V13.8891L131.33 13.8663ZM133.659 10.8809C133.659 10.2245 133.414 10.0304 133.031 10.0304C132.592 10.0304 132.403 10.3614 132.403 10.8809V12.4678H133.665L133.659 10.8809ZM136.205 12.4392V10.7953C136.205 10.2473 136.04 9.80775 135.44 9.80775C134.972 9.80775 134.727 10.1388 134.727 10.7667V12.4392H136.205Z" fill="#AED24D"/>
    <path d="M13.8496 0.921817C12.902 0.676363 11.6862 0.550781 10.242 0.550781H1.74816C1.57121 0.550781 1.34859 0.55078 1.14309 0.687778C0.920469 0.853316 0.812012 1.05881 0.812012 1.31568V27.6763C0.812012 28.053 1.12026 28.3613 1.497 28.3613H5.30439C5.66971 28.3613 5.96083 28.0644 5.96083 27.7048V20.0558C6.53737 20.0558 7.14244 20.0615 7.77034 20.0729C9.76822 20.1072 11.8289 20.1414 13.4272 19.7704C17.8796 18.7201 20.8308 15.1011 20.9335 10.5459C21.0477 5.96218 18.2735 2.18334 13.8496 0.921817ZM15.8075 10.3347C15.8075 12.8292 13.7297 14.8556 11.1782 14.8556H5.97225V5.72814H11.1782C13.7297 5.72814 15.8075 7.75457 15.8075 10.2491V10.3347Z" fill="#383838"/>
    <path d="M61.7298 9.23886H58.2478C57.8938 9.23886 57.6199 9.51286 57.6199 9.86677C57.6484 12.0016 57.8938 15.0727 57.2089 16.7966C55.896 20.113 51.2381 20.4384 49.4285 17.3445C48.3326 15.5065 48.6865 11.8076 48.715 9.72406C48.715 9.45007 48.4981 9.23315 48.2241 9.23315H44.6051C44.3882 9.23315 44.274 9.34161 44.274 9.56423C44.2169 11.4251 44.2169 13.2632 44.274 15.1012C44.3026 16.2543 44.4681 17.2133 44.7421 17.9782C46.3861 22.5562 51.318 25.1591 56.033 23.538C56.444 23.401 56.992 23.0984 57.4829 22.9101C57.5628 22.8815 57.6199 22.9101 57.6769 22.99C57.7854 25.3475 57.3744 26.5805 56.2784 27.3739C53.9209 29.2919 50.496 28.0303 49.126 25.3989C49.0176 25.1819 48.7721 25.0963 48.5495 25.1819C47.5334 25.5644 46.4945 25.9754 45.4784 26.3578C45.0104 26.5519 44.8505 26.8487 45.0104 27.2597C45.8609 29.3718 47.7789 31.1242 49.9423 31.9462C54.8171 33.8071 60.2456 31.1813 61.7526 26.1638C62.0266 25.2619 62.1636 25.0392 62.1636 22.7959C62.1636 18.3834 62.1636 13.9995 62.1636 9.67269C62.1693 9.42723 61.9752 9.23886 61.7298 9.23886Z" fill="#383838"/>
    <path d="M78.5461 0.91669C77.57 0.671236 76.3427 0.545654 74.91 0.545654H66.4161C66.2392 0.545654 66.0166 0.545653 65.8111 0.682651C65.5884 0.848189 65.48 1.05369 65.48 1.31056V27.6712C65.48 28.0479 65.7882 28.3561 66.165 28.3561H69.9724C70.3377 28.3561 70.6288 28.0593 70.6288 27.6997V20.0507C71.2168 20.0507 71.8275 20.0564 72.4669 20.0678C74.4647 20.102 76.5254 20.1363 78.1237 19.7653C82.5761 18.7149 85.5273 15.0959 85.63 10.5408C85.7442 5.96276 82.9643 2.18392 78.5461 0.91669ZM80.4698 10.3353C80.4698 12.8298 78.392 14.8562 75.8404 14.8562H70.6345V5.72873H75.8404C78.392 5.72873 80.4698 7.75515 80.4698 10.2496V10.3353Z" fill="#383838"/>
    <path d="M25.2828 9.59465C24.1069 9.76019 23.3648 9.7031 23.1479 11.1016C23.0109 11.9807 23.068 12.854 23.3135 13.7845C23.3705 13.95 23.5304 14.087 23.7245 14.0585C27.1494 13.8416 37.5327 11.7295 35.7289 18.7963C35.7003 18.9619 35.5919 19.0418 35.4263 19.0132C30.7684 18.8762 21.4811 17.8602 20.4651 24.9041C20.3281 25.9202 20.2995 26.8506 20.3851 27.6726H25.6481C25.2086 26.3826 25.591 24.6301 26.4987 23.8652C28.2511 22.4153 33.2686 22.8263 35.5119 22.9862C35.706 22.9862 35.7859 23.0946 35.7859 23.2887C35.8659 24.6301 36.0029 26.3826 35.432 27.7012H40.6379C40.7464 26.9362 40.8035 26.0286 40.832 25.0183C40.969 20.4974 40.969 17.4263 40.832 15.8395C40.2212 8.77266 30.4373 8.82975 25.2828 9.59465Z" fill="#383838"/>
    <path d="M126.673 9.23886H123.191C122.837 9.23886 122.563 9.51286 122.563 9.86677C122.591 12.0016 122.837 15.0727 122.152 16.7966C120.839 20.113 116.181 20.4384 114.371 17.3445C113.275 15.5065 113.629 11.8076 113.658 9.72406C113.658 9.45007 113.441 9.23315 113.167 9.23315H109.548C109.331 9.23315 109.217 9.34161 109.217 9.56423C109.16 11.4251 109.16 13.2632 109.217 15.1012C109.245 16.2543 109.411 17.2133 109.685 17.9782C111.329 22.5562 116.261 25.1591 120.976 23.538C121.387 23.401 121.935 23.0984 122.426 22.9101C122.506 22.8815 122.563 22.9101 122.62 22.99C122.728 25.3475 122.317 26.5805 121.221 27.3739C118.864 29.2919 115.439 28.0303 114.069 25.3989C113.96 25.1819 113.715 25.0963 113.492 25.1819C112.476 25.5644 111.437 25.9754 110.421 26.3578C109.953 26.5519 109.793 26.8487 109.953 27.2597C110.804 29.3718 112.722 31.1242 114.885 31.9462C119.76 33.8071 125.189 31.1813 126.695 26.1638C126.969 25.2619 127.106 25.0392 127.106 22.7959C127.106 18.3834 127.106 13.9995 127.106 9.67269C127.112 9.42723 126.918 9.23886 126.673 9.23886Z" fill="#383838"/>
    <path d="M90.2257 9.59465C89.0498 9.76019 88.3077 9.7031 88.0908 11.1016C87.9538 11.9807 88.0109 12.854 88.2563 13.7845C88.3134 13.95 88.4732 14.087 88.6673 14.0585C92.0923 13.8416 102.476 11.7295 100.672 18.7963C100.643 18.9619 100.535 19.0418 100.369 19.0132C95.7113 18.8762 86.424 17.8602 85.4079 24.9041C85.2709 25.9202 85.2424 26.8506 85.328 27.6726H90.591C90.1515 26.3826 90.5339 24.6301 91.4415 23.8652C93.1939 22.4153 98.2115 22.8263 100.455 22.9862C100.649 22.9862 100.729 23.0946 100.729 23.2887C100.809 24.6301 100.946 26.3826 100.375 27.7012H105.581C105.689 26.9362 105.746 26.0286 105.775 25.0183C105.912 20.4974 105.912 17.4263 105.775 15.8395C105.158 8.77266 95.3802 8.82975 90.2257 9.59465Z" fill="#383838"/>
    </svg>
    